PathFileType	4	(X/Y/Z)	C:/Users/beibeiliu/ov580/test_trc/User3\sequence.13_training_dense_right.trc
DataRate	CameraRate	NumFrames	NumMarkers	Units	OrigDataRate	OrigDataStartFrame	OrigNumFrames
120	120	12	19	mm	120	1	278
Frame#	Time	ThumbCMC			ThumbMCP			ThumbIP			ThumbTip			IndexMCP			IndexPIP			IndexTip			MiddleMCP			MiddlePIP			MiddleTip			RingMCP			RingPIP			RingTip			PinkyMCP			PinkyPIP			PinkyTip			BackHand1			BackHand2			BackHand3	
		X0	Y0	Z0	X1	Y1	Z1	X2	Y2	Z2	X3	Y3	Z3	X4	Y4	Z4	X5	Y5	Z5	X6	Y6	Z6	X7	Y7	Z7	X8	Y8	Z8	X9	Y9	Z9	X10	Y10	Z10	X11	Y11	Z11	X12	Y12	Z12	X13	Y13	Z13	X14	Y14	Z14	X15	Y15	Z15	X16	Y16	Z16	X17	Y17	Z17	X18	Y18	Z18	
0	0	130.551	-33.6597	33.3473	105.763	-43.5164	10.0312	95.342	-52.3939	-18.0772	96.042	-61.7708	-40.542	131.723	-19.8616	-45.211	123.223	-39.4748	-72.6386	114.614	-65.2267	-77.3454	152.623	-24.3163	-55.2743	140.385	-45.1563	-78.4675	136.599	-83.1775	-77.5861	169.116	-32.6674	-51.0352	162.843	-55.3172	-71.5901	157.636	-87.7307	-64.863	186.874	-40.6712	-40.5336	182.027	-60.6709	-59.4932	174.095	-86.5741	-55.8941	181.606	-13.7883	0.38525	187.638	-11.7734	31.5466	152.98	-8.32501	22.056	
1	0.00833333	127.776	-33.1696	29.2344	109.764	-43.6323	11.5062	96.9523	-52.0383	-18.8853	92.5893	-63.1708	-38.5351	131.173	-20.5945	-44.6061	120.459	-38.1037	-72.6297	117.994	-68.6375	-76.9333	148.733	-23.1024	-53.0607	138.462	-47.5446	-79.3532	135.485	-83.8385	-77.7084	165.87	-31.8719	-52.3141	167.413	-52.8073	-70.8987	156.245	-85.802	-65.2655	186.193	-40.2785	-39.1663	181.278	-60.716	-59.6422	168.838	-85.2934	-53.6754	180.986	-14.1194	0.800483	187.538	-12.7726	31.2503	151.753	-7.14347	19.4593	
2	0.0166667	127.35	-33.6673	34.4602	110.025	-43.6897	8.89213	95.3156	-52.3042	-18.0672	95.6546	-61.7783	-39.328	131.645	-20.9682	-45.2532	120.265	-35.4498	-70.5009	118.679	-65.6985	-77.7168	147.905	-24.4597	-57.9338	138.528	-46.8219	-79.3927	136.061	-84.9007	-76.9573	169.162	-32.005	-51.6311	163.575	-51.5455	-70.6036	157.516	-84.5016	-65.0881	185.917	-39.5031	-40.8752	182.681	-59.3421	-58.1409	171.424	-83.166	-55.6324	181.8	-14.0395	-0.499133	190.225	-12.2931	28.0072	154.117	-7.11006	20.4896	
3	0.025	125.771	-33.2428	31.4034	107.236	-43.8772	11.2912	96.0718	-52.1541	-19.8346	94.0823	-63.2563	-41.0818	129.624	-20.1351	-43.7741	120.26	-39.5177	-72.6237	120.011	-67.7941	-77.7113	152.392	-24.2025	-57.0064	142.58	-48.553	-80.465	139.006	-83.3563	-77.0019	167.278	-30.9999	-53.4015	163.815	-55.4216	-72.6407	156.222	-84.5403	-64.5309	186.247	-39.2802	-39.9196	182.697	-57.1576	-57.8532	170.448	-86.8288	-54.3146	179.049	-11.7167	-0.305965	188.737	-14.1015	30.6997	149.548	-7.50026	17.3633	
4	0.0333333	124.693	-32.6286	30.5352	108.653	-43.8161	10.3108	95.8041	-52.1074	-18.276	95.5425	-62.9447	-41.5287	130.877	-20.7677	-47.2794	120.111	-36.394	-71.576	120.319	-66.9317	-77.1431	148.326	-22.3408	-52.8275	140.357	-48.2917	-79.3105	135.819	-81.643	-77.6497	167.833	-30.801	-48.0985	160.931	-55.2147	-71.8878	155.928	-86.2861	-64.6488	188.418	-39.5809	-37.7117	180.357	-60.1665	-59.7089	170.721	-86.3339	-53.321	180	-12.7575	2.95683	191.601	-12.4509	30.3706	155.273	-8.47485	20.5429	
5	0.0416667	125.714	-33.4021	29.5821	111.449	-44.1825	9.61895	98.704	-53.0478	-14.1416	96.191	-62.4619	-37.928	128.177	-20.9051	-45.024	124.325	-39.0323	-71.983	114.399	-69.5965	-76.0912	150.924	-22.9066	-53.0764	143.465	-45.0775	-78.7678	135.687	-79.9782	-77.2873	166.323	-31.1517	-50.9198	165.173	-52.9616	-71.4817	155.711	-81.9928	-65.3233	188.774	-40.1368	-41.0561	181.287	-56.3995	-58.1645	171.507	-88.4252	-54.4635	183.855	-14.0257	-0.131288	188.57	-13.175	28.3854	154.54	-8.29915	17.0938	
6	0.05	128.494	-33.6588	30.13	107.98	-43.4468	11.2028	94.0992	-52.4646	-16.7709	92.9289	-63.7427	-38.3475	129.955	-20.9382	-45.3659	119.406	-38.9011	-71.558	119.738	-68.4977	-76.1162	148.271	-22.3879	-53.8559	141.061	-45.1618	-77.8991	135.856	-82.011	-75.6262	170.629	-31.2096	-51.8224	166.073	-53.5821	-71.1926	158.565	-83.3771	-64.6493	187.334	-39.3811	-37.7329	183.301	-60.8455	-58.4371	170.946	-88.3847	-52.7822	181.457	-12.2671	3.13006	187.183	-13.0368	30.8953	152.923	-8.25829	18.1082	
7	0.0583333	127.939	-33.3252	34.0634	108.267	-43.0601	10.5033	95.3897	-52.5025	-15.9581	94.1193	-63.312	-40.4121	128.34	-20.0675	-46.3917	122.445	-41.7058	-72.0946	116.834	-71.8375	-74.9414	150.148	-24.2263	-56.2001	140.926	-47.1565	-78.3581	137.922	-86.4734	-73.9114	171.075	-32.6541	-52.8355	166.384	-55.6921	-71.4027	155.144	-82.9057	-63.8832	188.233	-39.5395	-37.3388	182.301	-57.5404	-57.8465	171.918	-88.0298	-54.3287	180.729	-11.1997	-1.77416	188.85	-12.359	31.8507	151.859	-6.80271	20.7777	
8	0.0666667	129.857	-32.8246	28.0779	108.535	-43.8626	10.2376	97.7283	-53.2464	-14.6582	94.5889	-65.1527	-38.3319	130.525	-21.4897	-47.9239	121.312	-40.0596	-72.3572	118.21	-67.9492	-75.0307	151.445	-23.6818	-55.7235	141.601	-49.9096	-78.9631	135.507	-80.8595	-74.1381	169.173	-30.5662	-49.0977	164.051	-53.0559	-70.421	155.578	-86.1757	-60.1073	188.859	-40.6117	-39.8356	179.596	-60.3135	-57.6246	173.997	-87.1699	-51.8439	185.449	-12.2103	-1.46803	191.652	-13.3007	27.7172	155.644	-8.02898	20.2765	
9	0.075	128.071	-31.9574	33.1372	108.544	-44.7253	9.16325	97.2098	-53.8767	-15.4841	96.3178	-65.2027	-40.9095	132.663	-20.6799	-47.9069	119.973	-36.613	-70.0463	116.669	-70.0002	-72.6615	147.621	-22.9965	-57.6563	140.588	-49.4687	-78.5603	133.67	-81.7265	-72.0572	169.911	-31.1188	-49.402	162.467	-53.4931	-69.8399	153.976	-84.1964	-58.1303	190.324	-41.7796	-40.5679	180.05	-61.2412	-57.6402	167.778	-86.187	-50.6789	180.684	-14.219	1.82366	191.262	-14.3415	26.5971	157.991	-6.46608	20.5864	
10	0.0833333	130.433	-31.0201	29.5186	106.865	-43.21	7.08564	95.0963	-54.8828	-17.4866	99.0285	-66.0655	-41.8462	130.961	-17.9009	-44.0668	119.253	-37.8995	-72.1066	118.68	-65.6376	-75.3452	150.243	-23.6666	-56.9446	143.357	-46.3372	-78.1882	135.707	-81.7364	-67.3855	170.041	-32.7382	-53.0878	162.67	-55.7559	-69.4034	153.698	-83.9901	-53.7434	190.085	-43.2337	-40.6587	178.648	-62.0384	-56.6082	165.186	-88.5849	-44.5711	181.694	-13.9113	3.15823	191.305	-12.6733	30.4846	157.079	-8.27724	20.902	
11	0.0916667	129.204	-31.7338	34.3857	112.078	-42.9335	9.27695	97.2748	-54.2806	-20.4961	99.2705	-66.3863	-43.7571	128.692	-16.1272	-45.4304	121.613	-32.7367	-72.9079	115.622	-62.8212	-77.3099	147.647	-21.3543	-53.1388	140.5	-47.8767	-76.7728	132.301	-81.1483	-60.2962	168.389	-31.8978	-52.0867	162.335	-57.1635	-66.9197	151.488	-82.406	-45.0384	183.124	-41.6673	-42.3992	175.774	-65.756	-55.4375	166.385	-87.5999	-38.6317	182.216	-13.1055	-2.31858	189.822	-12.7676	28.9186	151.957	-6.51773	17.9064	
